<svg width="45" height="45" viewBox="0 0 45 45" fill="none" xmlns="http://www.w3.org/2000/svg">
<path d="M22.5 45C19.3875 45 16.4625 44.4079 13.725 43.2237C10.9875 42.0395 8.60625 40.4229 6.58125 38.3741C4.55625 36.3252 2.95312 33.9286 1.77187 31.1842C0.590625 28.4398 0 25.5263 0 22.4436C0 16.5414 1.95 11.4662 5.85 7.21805C9.75 2.96992 14.55 0.56391 20.25 0V6.76692C16.3875 7.29323 13.1719 9.03195 10.6031 11.9831C8.03437 14.9342 6.75 18.4211 6.75 22.4436C6.75 26.8045 8.2875 30.5263 11.3625 33.609C14.4375 36.6917 18.15 38.2331 22.5 38.2331C24.975 38.2331 27.2906 37.7068 29.4469 36.6541C31.6031 35.6015 33.4125 34.1729 34.875 32.3684L40.725 35.7519C38.7 38.5714 36.0938 40.8177 32.9062 42.4906C29.7188 44.1635 26.25 45 22.5 45ZM20.25 31.4662V24.6992H13.5V20.188H20.25V13.4211H24.75V20.188H31.5V24.6992H24.75V31.4662H20.25ZM43.0875 31.5789L37.2375 28.1955C37.575 27.2932 37.8281 26.3628 37.9969 25.4041C38.1656 24.4455 38.25 23.4586 38.25 22.4436C38.25 18.4211 36.9656 14.9342 34.3969 11.9831C31.8281 9.03195 28.6125 7.29323 24.75 6.76692V0C30.45 0.56391 35.25 2.96992 39.15 7.21805C43.05 11.4662 45 16.5414 45 22.4436C45 24.0977 44.85 25.6955 44.55 27.2368C44.25 28.7782 43.7625 30.2256 43.0875 31.5789Z" fill="black"/>
</svg>
