<svg width="25" height="19" viewBox="0 0 25 19" fill="none" xmlns="http://www.w3.org/2000/svg">
<path d="M22.6562 3.125H13.2812L10.1562 0H2.34375C1.04932 0 0 1.04932 0 2.34375V16.4062C0 17.7007 1.04932 18.75 2.34375 18.75H22.6562C23.9507 18.75 25 17.7007 25 16.4062V5.46875C25 4.17432 23.9507 3.125 22.6562 3.125ZM17.9688 11.3281C17.9688 11.7598 17.6191 12.1094 17.1875 12.1094H13.6719V15.625C13.6719 16.0566 13.3223 16.4062 12.8906 16.4062H12.1094C11.6777 16.4062 11.3281 16.0566 11.3281 15.625V12.1094H7.8125C7.38086 12.1094 7.03125 11.7598 7.03125 11.3281V10.5469C7.03125 10.1152 7.38086 9.76562 7.8125 9.76562H11.3281V6.25C11.3281 5.81836 11.6777 5.46875 12.1094 5.46875H12.8906C13.3223 5.46875 13.6719 5.81836 13.6719 6.25V9.76562H17.1875C17.6191 9.76562 17.9688 10.1152 17.9688 10.5469V11.3281Z" fill="white"/>
</svg>
