<svg width="167" height="167" viewBox="0 0 167 167" fill="none" xmlns="http://www.w3.org/2000/svg">
<path d="M32.0833 125.833C39.1667 120.417 47.0833 116.146 55.8333 113.021C64.5833 109.896 73.75 108.333 83.3333 108.333C92.9167 108.333 102.083 109.896 110.833 113.021C119.583 116.146 127.5 120.417 134.583 125.833C139.444 120.139 143.229 113.681 145.938 106.458C148.646 99.2361 150 91.5278 150 83.3333C150 64.8611 143.507 49.1319 130.521 36.1458C117.535 23.1597 101.806 16.6667 83.3333 16.6667C64.8611 16.6667 49.1319 23.1597 36.1458 36.1458C23.1597 49.1319 16.6667 64.8611 16.6667 83.3333C16.6667 91.5278 18.0208 99.2361 20.7292 106.458C23.4375 113.681 27.2222 120.139 32.0833 125.833ZM83.3333 91.6667C75.1389 91.6667 68.2292 88.8542 62.6042 83.2292C56.9792 77.6042 54.1667 70.6945 54.1667 62.5C54.1667 54.3056 56.9792 47.3958 62.6042 41.7708C68.2292 36.1458 75.1389 33.3333 83.3333 33.3333C91.5278 33.3333 98.4375 36.1458 104.063 41.7708C109.688 47.3958 112.5 54.3056 112.5 62.5C112.5 70.6945 109.688 77.6042 104.063 83.2292C98.4375 88.8542 91.5278 91.6667 83.3333 91.6667ZM83.3333 166.667C71.8056 166.667 60.9722 164.479 50.8333 160.104C40.6944 155.729 31.875 149.792 24.375 142.292C16.875 134.792 10.9375 125.972 6.5625 115.833C2.1875 105.694 0 94.8611 0 83.3333C0 71.8056 2.1875 60.9722 6.5625 50.8333C10.9375 40.6944 16.875 31.875 24.375 24.375C31.875 16.875 40.6944 10.9375 50.8333 6.5625C60.9722 2.1875 71.8056 0 83.3333 0C94.8611 0 105.694 2.1875 115.833 6.5625C125.972 10.9375 134.792 16.875 142.292 24.375C149.792 31.875 155.729 40.6944 160.104 50.8333C164.479 60.9722 166.667 71.8056 166.667 83.3333C166.667 94.8611 164.479 105.694 160.104 115.833C155.729 125.972 149.792 134.792 142.292 142.292C134.792 149.792 125.972 155.729 115.833 160.104C105.694 164.479 94.8611 166.667 83.3333 166.667ZM83.3333 150C90.6945 150 97.6389 148.924 104.167 146.771C110.694 144.618 116.667 141.528 122.083 137.5C116.667 133.472 110.694 130.382 104.167 128.229C97.6389 126.076 90.6945 125 83.3333 125C75.9722 125 69.0278 126.076 62.5 128.229C55.9722 130.382 50 133.472 44.5833 137.5C50 141.528 55.9722 144.618 62.5 146.771C69.0278 148.924 75.9722 150 83.3333 150ZM83.3333 75C86.9445 75 89.9306 73.8195 92.2917 71.4583C94.6528 69.0972 95.8333 66.1111 95.8333 62.5C95.8333 58.8889 94.6528 55.9028 92.2917 53.5417C89.9306 51.1806 86.9445 50 83.3333 50C79.7222 50 76.7361 51.1806 74.375 53.5417C72.0139 55.9028 70.8333 58.8889 70.8333 62.5C70.8333 66.1111 72.0139 69.0972 74.375 71.4583C76.7361 73.8195 79.7222 75 83.3333 75Z" fill="white"/>
</svg>
